<mxfile host="app.diagrams.net" modified="2023-06-27T13:32:55.733Z" agent="Mozilla/5.0 (Windows NT 10.0; Win64; x64) AppleWebKit/537.36 (KHTML, like Gecko) Chrome/114.0.0.0 Safari/537.36" version="21.5.1" etag="4EVYBdLIuspE25BvNM62" type="github">
  <diagram name="Page-1" id="fpk_4c6gBmyEOivnpwGw">
    <mxGraphModel>
      <root>
        <mxCell id="0" />
        <mxCell id="1" parent="0" />
      </root>
    </mxGraphModel>
  </diagram>
</mxfile>
